<?xml version="1.0" encoding="UTF-8"?>
<svg id="Ebene_2" xmlns="http://www.w3.org/2000/svg" viewBox="0 0 113.97 34.72">
  <g id="Ebene_1-2" data-name="Ebene_1">
    <path d="M91.28.28h-3.96l-14.14,28.46,2.98,3.79,13.09-26.61,13.34,28.79h4.84L91.28.28ZM109.72,34.71h4.25V0h-4.25v34.71ZM72.15.31l-10.3,13.79-5.6-7.28L60.95.31h11.2ZM61.98,19.44l11.8,15.26h-11.33l-6.01-7.77,5.54-7.49ZM47.14.3l12.73,16.49-13.26,17.91h-11.77l13.89-18.17L36.29.3h10.85ZM23.03.31h9.43v34.41h-8.35L9.43,15.83v18.88H0V.3h8.89l14.14,18.19V.31h0Z" style="fill: #fff;"/>
  </g>
</svg>
